<svg viewBox="0 0 120 120" fill="none" xmlns="http://www.w3.org/2000/svg">
    <circle cx="60" cy="60" r="54" stroke="#8B2500" stroke-width="4"/>
    <path d="M30 52C30 52 38 46 60 46C82 46 90 52 90 52" stroke="#8B2500" stroke-width="4" stroke-linecap="round"/>
    <path d="M24 62C24 62 32 56 60 56C88 56 96 62 96 62L90 82C90 82 84 96 60 96C36 96 30 82 30 82L24 62Z" fill="#8B2500"/>
    <path d="M36 70C36 70 44 66 60 66C76 66 84 70 84 70" stroke="#5C1A00" stroke-width="3" stroke-linecap="round"/>
    <path d="M40 80C40 80 48 76 60 76C72 76 80 80 80 80" stroke="#5C1A00" stroke-width="3" stroke-linecap="round"/>
    <path d="M44 88C44 88 50 86 60 86C70 86 76 88 76 88" stroke="#5C1A00" stroke-width="2" stroke-linecap="round"/>
    <circle cx="40" cy="38" r="6" fill="#8B2500"/>
    <circle cx="80" cy="38" r="6" fill="#8B2500"/>
    <circle cx="40" cy="38" r="2" fill="#2D2D2D"/>
    <circle cx="80" cy="38" r="2" fill="#2D2D2D"/>
</svg>
