<svg viewBox="0 0 120 120" fill="none" xmlns="http://www.w3.org/2000/svg">
    <!-- Bald head -->
    <ellipse cx="60" cy="42" rx="38" ry="36" fill="#F5DEB3"/>
    <!-- Head highlight (shiny bald effect) -->
    <ellipse cx="52" cy="28" rx="18" ry="12" fill="#FFF8DC" opacity="0.6"/>
    <!-- Ears -->
    <ellipse cx="22" cy="50" rx="6" ry="10" fill="#E8C99B"/>
    <ellipse cx="98" cy="50" rx="6" ry="10" fill="#E8C99B"/>
    <!-- Eyebrows (strong, determined) -->
    <path d="M35 38C35 38 42 34 52 36" stroke="#5C1A00" stroke-width="4" stroke-linecap="round"/>
    <path d="M85 38C85 38 78 34 68 36" stroke="#5C1A00" stroke-width="4" stroke-linecap="round"/>
    <!-- Eyes -->
    <ellipse cx="44" cy="48" rx="8" ry="6" fill="white"/>
    <ellipse cx="76" cy="48" rx="8" ry="6" fill="white"/>
    <circle cx="46" cy="48" r="4" fill="#2D2D2D"/>
    <circle cx="78" cy="48" r="4" fill="#2D2D2D"/>
    <circle cx="47" cy="47" r="1.5" fill="white"/>
    <circle cx="79" cy="47" r="1.5" fill="white"/>
    <!-- Nose -->
    <path d="M60 50C60 50 56 60 60 64C64 60 60 50 60 50Z" fill="#E8C99B"/>
    <!-- Epic Beard -->
    <path d="M22 58C22 58 22 72 28 84C34 96 46 108 60 112C74 108 86 96 92 84C98 72 98 58 98 58C98 58 90 62 60 62C30 62 22 58 22 58Z" fill="#8B2500"/>
    <!-- Mustache -->
    <path d="M36 66C36 66 48 72 60 72C72 72 84 66 84 66C84 66 78 76 60 76C42 76 36 66 36 66Z" fill="#5C1A00"/>
    <!-- Beard texture lines -->
    <path d="M38 80C38 80 48 78 60 78C72 78 82 80 82 80" stroke="#5C1A00" stroke-width="2" stroke-linecap="round"/>
    <path d="M42 90C42 90 50 88 60 88C70 88 78 90 78 90" stroke="#5C1A00" stroke-width="2" stroke-linecap="round"/>
    <path d="M50 100C50 100 54 98 60 98C66 98 70 100 70 100" stroke="#5C1A00" stroke-width="2" stroke-linecap="round"/>
    <!-- Beard side details -->
    <path d="M28 70C28 70 24 80 30 92" stroke="#5C1A00" stroke-width="2" stroke-linecap="round"/>
    <path d="M92 70C92 70 96 80 90 92" stroke="#5C1A00" stroke-width="2" stroke-linecap="round"/>
</svg>
